# xmcd
#
# Track frame offsets:
#	150
#	12742
#	24632
#	37747
#	56187
#	69955
#	86592
#	100315
#	121007
#	134402
#	146720
#	158917
#	172287
#	184370
#	198520
#	213467
#	227005
#	241195
#
# Disc length: 3432
#
# Revision: 1
# Processed by: cddbd v1.5.1PL0 Copyright (c) Steve Scherf et al.
# Submitted via: CDex 1.51
# Normalized: r0:DSETVAR1,TDELIM( - )
#
DISCID=050d6612
DTITLE=Various Artist - Jazz After Hours
DYEAR=1998
DGENRE=Jazz
TTITLE0=Miles Davis - Milestone
TTITLE1=Stan Getz - Don't Worry 'Bout Me
TTITLE2=Charlie Parker - Bluebird
TTITLE3=Lester Young - I've Found A New Baby
TTITLE4=Dizzy Gillespie - Oop Bop Sh' Bam
TTITLE5=Dexter Gordon - So Easy
TTITLE6=Sidney Bechet And His New Orleans Feetwarmers - When It's Sleepy Time Down South
TTITLE7=Duke Ellington - Sono
TTITLE8=Willie Smith - Not So Bop Blues
TTITLE9=Stan Getz - And The Angels Swing
TTITLE10=Dizzy Gillespie - That's Earl Brother
TTITLE11=Dexter Gordon - Dexter Digs In
TTITLE12=Charlie Parker - Another Hair Do
TTITLE13=Coleman Hawkins - Spotlite
TTITLE14=Jack Teagarden's Big Eight - Blues After Hours
TTITLE15=Esquire All American Award Winners - Buckin' The Blues
TTITLE16=Earl Hines and His Orchestra - Stormy Monday Blues
TTITLE17=Johnny Hodges And His Orchestra - Things Ain't What They Used To Do
EXTD=YEAR: 1998
EXTT0=
EXTT1=
EXTT2=
EXTT3=
EXTT4=
EXTT5=
EXTT6=
EXTT7=
EXTT8=
EXTT9=
EXTT10=
EXTT11=
EXTT12=
EXTT13=
EXTT14=
EXTT15=
EXTT16=
EXTT17=
PLAYORDER=
